<svg width="16" height="16" viewBox="0 0 16 16" fill="none" xmlns="http://www.w3.org/2000/svg">
<path d="M5.67188 3.91602C5.92188 3.91602 6.09961 3.94531 6.20508 4.00391C6.31055 4.05859 6.36328 4.15234 6.36328 4.28516V5.89062C6.36328 6.02344 6.32031 6.11914 6.23438 6.17773C6.15234 6.23242 6.01562 6.25977 5.82422 6.25977C5.69531 6.25977 5.59375 6.24414 5.51953 6.21289C5.44531 6.18164 5.38672 6.13477 5.34375 6.07227C5.16016 5.7832 4.92383 5.56055 4.63477 5.4043C4.3457 5.24414 4.01172 5.16406 3.63281 5.16406C3.34766 5.16406 3.12305 5.23633 2.95898 5.38086C2.79883 5.52539 2.71875 5.71289 2.71875 5.94336C2.71875 6.05664 2.75391 6.15039 2.82422 6.22461C2.89453 6.29492 2.99609 6.35742 3.12891 6.41211C3.30078 6.47852 3.5957 6.54688 4.01367 6.61719C4.41992 6.69531 4.75195 6.76953 5.00977 6.83984C5.26758 6.90625 5.50977 7.00977 5.73633 7.15039C6.36133 7.5293 6.67383 8.14062 6.67383 8.98438C6.67383 9.41406 6.58203 9.78906 6.39844 10.1094C6.21875 10.4297 5.94727 10.6797 5.58398 10.8594C5.2207 11.0391 4.77344 11.1289 4.24219 11.1289C3.58984 11.1289 3.03711 10.9316 2.58398 10.5371V10.7598C2.58398 10.8926 2.53516 10.9863 2.4375 11.041C2.34375 11.0996 2.17383 11.1289 1.92773 11.1289C1.67773 11.1289 1.5 11.0996 1.39453 11.041C1.28906 10.9863 1.23633 10.8926 1.23633 10.7598V8.80273C1.23633 8.66992 1.27734 8.57617 1.35938 8.52148C1.44531 8.46289 1.58398 8.43359 1.77539 8.43359C1.91211 8.43359 2.01953 8.45117 2.09766 8.48633C2.17969 8.52148 2.24219 8.58203 2.28516 8.66797C2.49609 9.07031 2.74805 9.37305 3.04102 9.57617C3.33398 9.7793 3.67578 9.88086 4.06641 9.88086C4.41016 9.88086 4.67188 9.81055 4.85156 9.66992C5.03125 9.5293 5.12109 9.33398 5.12109 9.08398C5.12109 8.92773 5.08008 8.79688 4.99805 8.69141C4.91992 8.58203 4.80469 8.49023 4.65234 8.41602C4.52734 8.35352 4.38867 8.30273 4.23633 8.26367C4.08789 8.22461 3.86719 8.17383 3.57422 8.11133C3.23828 8.04102 2.96094 7.97656 2.74219 7.91797C2.52344 7.85938 2.31836 7.7793 2.12695 7.67773C1.83008 7.52148 1.59766 7.31445 1.42969 7.05664C1.26172 6.79492 1.17773 6.45703 1.17773 6.04297C1.17773 5.62891 1.27344 5.26172 1.46484 4.94141C1.65625 4.61719 1.92383 4.36523 2.26758 4.18555C2.61523 4.00586 3.01172 3.91602 3.45703 3.91602C3.76953 3.91602 4.05859 3.9668 4.32422 4.06836C4.58984 4.16992 4.82031 4.31445 5.01562 4.50195V4.28516C5.01562 4.15234 5.0625 4.05859 5.15625 4.00391C5.25391 3.94531 5.42578 3.91602 5.67188 3.91602ZM14.4434 4.04492C14.5371 4.04492 14.6094 4.0625 14.6602 4.09766C14.7109 4.12891 14.748 4.1875 14.7715 4.27344C14.7988 4.35938 14.8125 4.48438 14.8125 4.64844C14.8125 4.8125 14.7988 4.9375 14.7715 5.02344C14.748 5.10938 14.7109 5.16797 14.6602 5.19922C14.6094 5.23047 14.5371 5.24609 14.4434 5.24609H14.1152L13.5234 10.748C13.5117 10.8457 13.4844 10.9219 13.4414 10.9766C13.3984 11.0312 13.3281 11.0703 13.2305 11.0938C13.1328 11.1172 12.9941 11.1289 12.8145 11.1289C12.5566 11.1289 12.3691 11.0996 12.252 11.041C12.1387 10.9824 12.0586 10.8848 12.0117 10.748L11.0742 7.98828L10.125 10.748C10.0781 10.8848 9.99609 10.9824 9.87891 11.041C9.76172 11.0996 9.57227 11.1289 9.31055 11.1289C9.13086 11.1289 8.99219 11.1172 8.89453 11.0938C8.80078 11.0703 8.73242 11.0312 8.68945 10.9766C8.65039 10.9219 8.625 10.8457 8.61328 10.748L8.04492 5.24609H7.75195C7.6582 5.24609 7.58594 5.23047 7.53516 5.19922C7.48438 5.16797 7.44727 5.10938 7.42383 5.02344C7.39648 4.9375 7.38281 4.8125 7.38281 4.64844C7.38281 4.48438 7.39648 4.35938 7.42383 4.27344C7.44727 4.1875 7.48438 4.12891 7.53516 4.09766C7.58594 4.0625 7.6582 4.04492 7.75195 4.04492H10.0605C10.1543 4.04492 10.2266 4.0625 10.2773 4.09766C10.3281 4.12891 10.3652 4.1875 10.3887 4.27344C10.416 4.35938 10.4297 4.48438 10.4297 4.64844C10.4297 4.8125 10.416 4.9375 10.3887 5.02344C10.3652 5.10938 10.3281 5.16797 10.2773 5.19922C10.2266 5.23047 10.1543 5.24609 10.0605 5.24609H9.375L9.68555 8.66797L10.541 6.16016C10.5684 6.07031 10.6211 6.00195 10.6992 5.95508C10.7773 5.9082 10.9082 5.88477 11.0918 5.88477C11.2871 5.88477 11.4277 5.9043 11.5137 5.94336C11.5996 5.97852 11.6543 6.03711 11.6777 6.11914L12.5391 8.66797L12.8555 5.24609H12.252C12.1582 5.24609 12.0859 5.23047 12.0352 5.19922C11.9844 5.16797 11.9453 5.10938 11.918 5.02344C11.8945 4.9375 11.8828 4.8125 11.8828 4.64844C11.8828 4.48438 11.8945 4.35938 11.918 4.27344C11.9453 4.1875 11.9844 4.12891 12.0352 4.09766C12.0859 4.0625 12.1582 4.04492 12.252 4.04492H14.4434Z" fill="#303030"/>
</svg>
